<svg width="99" height="99" viewBox="0 0 99 99" fill="none" xmlns="http://www.w3.org/2000/svg"><path d="M49.5 99C76.838 99 99 76.838 99 49.5S76.838 0 49.5 0 0 22.162 0 49.5 22.162 99 49.5 99z" fill="#fff"/><path d="M35.578 61.875V18.562h15.69c3.315 0 6.188 1.105 8.618 3.094 2.431 1.99 3.536 4.64 3.536 7.956 0 4.198-1.989 7.513-5.525 8.618 5.525 1.105 8.619 5.303 8.619 10.828 0 3.757-1.326 6.85-3.757 9.281-2.43 2.431-5.525 3.536-9.502 3.536H35.578zm7.735-25.855h6.85c3.315 0 5.525-2.21 5.525-5.304 0-2.872-2.21-5.082-5.525-5.082h-6.85V36.02zm0 19.005h8.618c3.978 0 6.85-2.652 6.85-6.188 0-3.536-2.872-6.187-6.85-6.187h-8.618v12.375z" fill="#151C34"/><path d="M49.611 74.25c-12.013 0-22.914 5.746-29.811 15.027C28.032 95.464 38.265 99 49.389 99A49.777 49.777 0 0 0 79.2 89.056c-6.674-8.84-17.575-14.806-29.589-14.806z" fill="#387CDF"/></svg>