<svg width="26" height="26" viewBox="0 0 26 26" fill="none" xmlns="http://www.w3.org/2000/svg"><path opacity=".5" d="M20.205 5H5.695C5.299 5 5 5.3 5 5.7v14.7c0 .3.298.6.696.6h14.608c.398 0 .696-.3.696-.7V5.7c-.1-.4-.398-.7-.795-.7zM9.671 18.6H7.385V11H9.77v7.6h-.1zM8.578 10c-.795 0-1.392-.7-1.392-1.4 0-.8.597-1.4 1.392-1.4.795 0 1.39.6 1.39 1.4-.098.7-.695 1.4-1.39 1.4zm9.938 8.6H16.13v-3.7c0-.9 0-2-1.192-2-1.193 0-1.391 1-1.391 2v3.8H11.16V11h2.286v1c.298-.6 1.093-1.2 2.187-1.2 2.385 0 2.782 1.6 2.782 3.6v4.2h.1z" fill="#fff"/></svg>